<mxfile host="app.diagrams.net" modified="2022-08-09T15:51:20.673Z" agent="5.0 (Windows NT 10.0; Win64; x64) AppleWebKit/537.36 (KHTML, like Gecko) Chrome/103.0.0.0 Safari/537.36" etag="FQBIY1HNXLec95uIYAC2" version="20.2.3" type="github">
  <diagram id="Pey-fTAdMKlvTzAQ_6oM" name="第 1 页">
    <mxGraphModel dx="1375" dy="600" grid="0" gridSize="10" guides="1" tooltips="1" connect="1" arrows="1" fold="1" page="1" pageScale="1" pageWidth="827" pageHeight="1169" math="0" shadow="0">
      <root>
        <mxCell id="0" />
        <mxCell id="1" parent="0" />
        <mxCell id="8uJBnfEMiXlE6in7qdmo-6" value="" style="shape=table;html=1;whiteSpace=wrap;startSize=0;container=1;collapsible=0;childLayout=tableLayout;" vertex="1" parent="1">
          <mxGeometry x="86" y="157" width="59" height="120" as="geometry" />
        </mxCell>
        <mxCell id="8uJBnfEMiXlE6in7qdmo-7" value="" style="shape=tableRow;horizontal=0;startSize=0;swimlaneHead=0;swimlaneBody=0;top=0;left=0;bottom=0;right=0;collapsible=0;dropTarget=0;fillColor=none;points=[[0,0.5],[1,0.5]];portConstraint=eastwest;" vertex="1" parent="8uJBnfEMiXlE6in7qdmo-6">
          <mxGeometry width="59" height="40" as="geometry" />
        </mxCell>
        <mxCell id="8uJBnfEMiXlE6in7qdmo-8" value="" style="shape=partialRectangle;html=1;whiteSpace=wrap;connectable=0;fillColor=none;top=0;left=0;bottom=0;right=0;overflow=hidden;" vertex="1" parent="8uJBnfEMiXlE6in7qdmo-7">
          <mxGeometry width="20" height="40" as="geometry">
            <mxRectangle width="20" height="40" as="alternateBounds" />
          </mxGeometry>
        </mxCell>
        <mxCell id="8uJBnfEMiXlE6in7qdmo-9" value="" style="shape=partialRectangle;html=1;whiteSpace=wrap;connectable=0;fillColor=none;top=0;left=0;bottom=0;right=0;overflow=hidden;" vertex="1" parent="8uJBnfEMiXlE6in7qdmo-7">
          <mxGeometry x="20" width="19" height="40" as="geometry">
            <mxRectangle width="19" height="40" as="alternateBounds" />
          </mxGeometry>
        </mxCell>
        <mxCell id="8uJBnfEMiXlE6in7qdmo-10" value="" style="shape=partialRectangle;html=1;whiteSpace=wrap;connectable=0;fillColor=none;top=0;left=0;bottom=0;right=0;overflow=hidden;" vertex="1" parent="8uJBnfEMiXlE6in7qdmo-7">
          <mxGeometry x="39" width="20" height="40" as="geometry">
            <mxRectangle width="20" height="40" as="alternateBounds" />
          </mxGeometry>
        </mxCell>
        <mxCell id="8uJBnfEMiXlE6in7qdmo-11" value="" style="shape=tableRow;horizontal=0;startSize=0;swimlaneHead=0;swimlaneBody=0;top=0;left=0;bottom=0;right=0;collapsible=0;dropTarget=0;fillColor=none;points=[[0,0.5],[1,0.5]];portConstraint=eastwest;" vertex="1" parent="8uJBnfEMiXlE6in7qdmo-6">
          <mxGeometry y="40" width="59" height="40" as="geometry" />
        </mxCell>
        <mxCell id="8uJBnfEMiXlE6in7qdmo-12" value="" style="shape=partialRectangle;html=1;whiteSpace=wrap;connectable=0;fillColor=none;top=0;left=0;bottom=0;right=0;overflow=hidden;" vertex="1" parent="8uJBnfEMiXlE6in7qdmo-11">
          <mxGeometry width="20" height="40" as="geometry">
            <mxRectangle width="20" height="40" as="alternateBounds" />
          </mxGeometry>
        </mxCell>
        <mxCell id="8uJBnfEMiXlE6in7qdmo-13" value="" style="shape=partialRectangle;html=1;whiteSpace=wrap;connectable=0;fillColor=none;top=0;left=0;bottom=0;right=0;overflow=hidden;" vertex="1" parent="8uJBnfEMiXlE6in7qdmo-11">
          <mxGeometry x="20" width="19" height="40" as="geometry">
            <mxRectangle width="19" height="40" as="alternateBounds" />
          </mxGeometry>
        </mxCell>
        <mxCell id="8uJBnfEMiXlE6in7qdmo-14" value="" style="shape=partialRectangle;html=1;whiteSpace=wrap;connectable=0;fillColor=none;top=0;left=0;bottom=0;right=0;overflow=hidden;" vertex="1" parent="8uJBnfEMiXlE6in7qdmo-11">
          <mxGeometry x="39" width="20" height="40" as="geometry">
            <mxRectangle width="20" height="40" as="alternateBounds" />
          </mxGeometry>
        </mxCell>
        <mxCell id="8uJBnfEMiXlE6in7qdmo-15" value="" style="shape=tableRow;horizontal=0;startSize=0;swimlaneHead=0;swimlaneBody=0;top=0;left=0;bottom=0;right=0;collapsible=0;dropTarget=0;fillColor=none;points=[[0,0.5],[1,0.5]];portConstraint=eastwest;" vertex="1" parent="8uJBnfEMiXlE6in7qdmo-6">
          <mxGeometry y="80" width="59" height="40" as="geometry" />
        </mxCell>
        <mxCell id="8uJBnfEMiXlE6in7qdmo-16" value="" style="shape=partialRectangle;html=1;whiteSpace=wrap;connectable=0;fillColor=none;top=0;left=0;bottom=0;right=0;overflow=hidden;" vertex="1" parent="8uJBnfEMiXlE6in7qdmo-15">
          <mxGeometry width="20" height="40" as="geometry">
            <mxRectangle width="20" height="40" as="alternateBounds" />
          </mxGeometry>
        </mxCell>
        <mxCell id="8uJBnfEMiXlE6in7qdmo-17" value="" style="shape=partialRectangle;html=1;whiteSpace=wrap;connectable=0;fillColor=none;top=0;left=0;bottom=0;right=0;overflow=hidden;" vertex="1" parent="8uJBnfEMiXlE6in7qdmo-15">
          <mxGeometry x="20" width="19" height="40" as="geometry">
            <mxRectangle width="19" height="40" as="alternateBounds" />
          </mxGeometry>
        </mxCell>
        <mxCell id="8uJBnfEMiXlE6in7qdmo-18" value="" style="shape=partialRectangle;html=1;whiteSpace=wrap;connectable=0;fillColor=none;top=0;left=0;bottom=0;right=0;overflow=hidden;pointerEvents=1;" vertex="1" parent="8uJBnfEMiXlE6in7qdmo-15">
          <mxGeometry x="39" width="20" height="40" as="geometry">
            <mxRectangle width="20" height="40" as="alternateBounds" />
          </mxGeometry>
        </mxCell>
        <mxCell id="8uJBnfEMiXlE6in7qdmo-19" value="Pool" style="swimlane;childLayout=stackLayout;resizeParent=1;resizeParentMax=0;horizontal=1;startSize=20;horizontalStack=0;" vertex="1" parent="1">
          <mxGeometry x="166" y="161" width="480" height="380" as="geometry" />
        </mxCell>
        <mxCell id="8uJBnfEMiXlE6in7qdmo-20" value="Lane 1" style="swimlane;startSize=20;horizontal=0;" vertex="1" parent="8uJBnfEMiXlE6in7qdmo-19">
          <mxGeometry y="20" width="480" height="120" as="geometry" />
        </mxCell>
        <mxCell id="8uJBnfEMiXlE6in7qdmo-21" value="Lane 2" style="swimlane;startSize=20;horizontal=0;" vertex="1" parent="8uJBnfEMiXlE6in7qdmo-19">
          <mxGeometry y="140" width="480" height="120" as="geometry" />
        </mxCell>
        <mxCell id="8uJBnfEMiXlE6in7qdmo-22" value="Lane 3" style="swimlane;startSize=20;horizontal=0;" vertex="1" parent="8uJBnfEMiXlE6in7qdmo-19">
          <mxGeometry y="260" width="480" height="120" as="geometry" />
        </mxCell>
      </root>
    </mxGraphModel>
  </diagram>
</mxfile>
